<svg width="18" height="18" viewBox="0 0 18 18" fill="none" xmlns="http://www.w3.org/2000/svg">
<g id="building icon">
<g id="Vector">
<mask id="path-1-inside-1_162_56" fill="white">
<path d="M13.5 11.25H12V12.75H13.5M13.5 8.25H12V9.75H13.5M15 14.25H9V12.75H10.5V11.25H9V9.75H10.5V8.25H9V6.75H15M7.5 5.25H6V3.75H7.5M7.5 8.25H6V6.75H7.5M7.5 11.25H6V9.75H7.5M7.5 14.25H6V12.75H7.5M4.5 5.25H3V3.75H4.5M4.5 8.25H3V6.75H4.5M4.5 11.25H3V9.75H4.5M4.5 14.25H3V12.75H4.5M9 5.25V2.25H1.5V15.75H16.5V5.25H9Z"/>
</mask>
<path d="M13.5 11.25H12V12.75H13.5M13.5 8.25H12V9.75H13.5M15 14.25H9V12.75H10.5V11.25H9V9.75H10.5V8.25H9V6.75H15M7.5 5.25H6V3.75H7.5M7.5 8.25H6V6.75H7.5M7.5 11.25H6V9.75H7.5M7.5 14.25H6V12.75H7.5M4.5 5.25H3V3.75H4.5M4.5 8.25H3V6.75H4.5M4.5 11.25H3V9.75H4.5M4.5 14.25H3V12.75H4.5M9 5.25V2.25H1.5V15.75H16.5V5.25H9Z" fill="#333C40"/>
<path d="M12 11.25V10.5H11.25V11.25H12ZM12 12.75H11.25V13.5H12V12.75ZM12 8.25V7.5H11.25V8.25H12ZM12 9.75H11.25V10.5H12V9.75ZM9 14.25H8.25V15H9V14.25ZM9 12.75V12H8.25V12.75H9ZM10.5 12.75V13.5H11.25V12.75H10.5ZM10.5 11.25H11.25V10.5H10.5V11.25ZM9 11.25H8.25V12H9V11.25ZM9 9.75V9H8.25V9.75H9ZM10.5 9.75V10.5H11.25V9.75H10.5ZM10.5 8.25H11.25V7.5H10.5V8.25ZM9 8.25H8.25V9H9V8.25ZM9 6.75V6H8.25V6.75H9ZM6 5.25H5.25V6H6V5.25ZM6 3.75V3H5.25V3.75H6ZM6 8.25H5.25V9H6V8.25ZM6 6.75V6H5.25V6.75H6ZM6 11.25H5.25V12H6V11.25ZM6 9.75V9H5.25V9.75H6ZM6 14.25H5.25V15H6V14.25ZM6 12.75V12H5.25V12.75H6ZM3 5.25H2.25V6H3V5.25ZM3 3.75V3H2.25V3.75H3ZM3 8.25H2.25V9H3V8.25ZM3 6.75V6H2.25V6.75H3ZM3 11.25H2.25V12H3V11.25ZM3 9.75V9H2.25V9.75H3ZM3 14.25H2.25V15H3V14.25ZM3 12.75V12H2.25V12.75H3ZM9 5.25H8.25V6H9V5.25ZM9 2.25H9.75V1.5H9V2.25ZM1.5 2.25V1.5H0.75V2.25H1.5ZM1.5 15.75H0.75V16.5H1.5V15.75ZM16.5 15.75V16.5H17.25V15.75H16.5ZM16.5 5.25H17.25V4.5H16.5V5.25ZM13.5 10.5H12V12H13.5V10.5ZM11.25 11.25V12.75H12.75V11.25H11.25ZM12 13.5H13.5V12H12V13.5ZM13.5 7.5H12V9H13.5V7.5ZM11.25 8.25V9.75H12.75V8.25H11.25ZM12 10.5H13.5V9H12V10.5ZM15 13.5H9V15H15V13.5ZM9.75 14.25V12.75H8.25V14.25H9.75ZM9 13.5H10.5V12H9V13.5ZM11.25 12.75V11.25H9.75V12.75H11.25ZM10.5 10.5H9V12H10.5V10.5ZM9.75 11.25V9.75H8.25V11.25H9.75ZM9 10.5H10.5V9H9V10.5ZM11.25 9.75V8.25H9.75V9.75H11.25ZM10.5 7.5H9V9H10.5V7.5ZM9.75 8.25V6.75H8.25V8.25H9.75ZM9 7.5H15V6H9V7.5ZM7.5 4.5H6V6H7.5V4.5ZM6.75 5.25V3.75H5.25V5.25H6.75ZM6 4.5H7.5V3H6V4.5ZM7.5 7.5H6V9H7.5V7.5ZM6.75 8.25V6.75H5.25V8.25H6.75ZM6 7.5H7.5V6H6V7.5ZM7.5 10.5H6V12H7.5V10.5ZM6.75 11.25V9.75H5.25V11.25H6.75ZM6 10.5H7.5V9H6V10.5ZM7.5 13.5H6V15H7.5V13.5ZM6.75 14.25V12.75H5.25V14.25H6.75ZM6 13.5H7.5V12H6V13.5ZM4.5 4.5H3V6H4.5V4.5ZM3.75 5.25V3.75H2.25V5.25H3.75ZM3 4.5H4.5V3H3V4.5ZM4.5 7.5H3V9H4.5V7.5ZM3.75 8.25V6.75H2.25V8.25H3.75ZM3 7.5H4.5V6H3V7.5ZM4.5 10.5H3V12H4.5V10.5ZM3.75 11.25V9.75H2.25V11.25H3.75ZM3 10.5H4.5V9H3V10.5ZM4.5 13.5H3V15H4.5V13.5ZM3.75 14.25V12.75H2.25V14.25H3.75ZM3 13.5H4.5V12H3V13.5ZM9.75 5.25V2.25H8.25V5.25H9.75ZM9 1.5H1.5V3H9V1.5ZM0.75 2.25V15.75H2.25V2.25H0.75ZM1.5 16.5H16.5V15H1.5V16.5ZM17.25 15.75V5.25H15.75V15.75H17.25ZM16.5 4.5H9V6H16.5V4.5Z" fill="#333C40" mask="url(#path-1-inside-1_162_56)"/>
</g>
</g>
</svg>
