<svg width="14" height="14" viewBox="0 0 14 14" fill="none" xmlns="http://www.w3.org/2000/svg">
<path id="Vector" d="M3.75 1.8C3.75 1.45522 3.88696 1.12456 4.13076 0.880761C4.37456 0.636964 4.70522 0.5 5.05 0.5H8.95C9.29478 0.5 9.62544 0.636964 9.86924 0.880761C10.113 1.12456 10.25 1.45522 10.25 1.8V3.1H12.85C13.0224 3.1 13.1877 3.16848 13.3096 3.29038C13.4315 3.41228 13.5 3.57761 13.5 3.75C13.5 3.92239 13.4315 4.08772 13.3096 4.20962C13.1877 4.33152 13.0224 4.4 12.85 4.4H12.1551L11.5916 12.2923C11.5683 12.6203 11.4215 12.9272 11.1809 13.1513C10.9403 13.3754 10.6237 13.5 10.2948 13.5H3.7045C3.37569 13.5 3.05909 13.3754 2.81848 13.1513C2.57786 12.9272 2.4311 12.6203 2.40775 12.2923L1.8455 4.4H1.15C0.977609 4.4 0.812279 4.33152 0.690381 4.20962C0.568482 4.08772 0.5 3.92239 0.5 3.75C0.5 3.57761 0.568482 3.41228 0.690381 3.29038C0.812279 3.16848 0.977609 3.1 1.15 3.1H3.75V1.8ZM5.05 3.1H8.95V1.8H5.05V3.1ZM3.1481 4.4L3.70515 12.2H10.2955L10.8525 4.4H3.1481ZM5.7 5.7C5.87239 5.7 6.03772 5.76848 6.15962 5.89038C6.28152 6.01228 6.35 6.17761 6.35 6.35V10.25C6.35 10.4224 6.28152 10.5877 6.15962 10.7096C6.03772 10.8315 5.87239 10.9 5.7 10.9C5.52761 10.9 5.36228 10.8315 5.24038 10.7096C5.11848 10.5877 5.05 10.4224 5.05 10.25V6.35C5.05 6.17761 5.11848 6.01228 5.24038 5.89038C5.36228 5.76848 5.52761 5.7 5.7 5.7ZM8.3 5.7C8.47239 5.7 8.63772 5.76848 8.75962 5.89038C8.88152 6.01228 8.95 6.17761 8.95 6.35V10.25C8.95 10.4224 8.88152 10.5877 8.75962 10.7096C8.63772 10.8315 8.47239 10.9 8.3 10.9C8.12761 10.9 7.96228 10.8315 7.84038 10.7096C7.71848 10.5877 7.65 10.4224 7.65 10.25V6.35C7.65 6.17761 7.71848 6.01228 7.84038 5.89038C7.96228 5.76848 8.12761 5.7 8.3 5.7Z" fill="#333C40"/>
</svg>
