<svg width="24" height="25" viewBox="0 0 24 25" fill="none" xmlns="http://www.w3.org/2000/svg">
<g id="copy icon">
<path id="Vector" d="M20.25 3.7757H8.25C8.05109 3.7757 7.86032 3.85471 7.71967 3.99537C7.57902 4.13602 7.5 4.32678 7.5 4.5257V8.2757H3.75C3.55109 8.2757 3.36032 8.35471 3.21967 8.49537C3.07902 8.63602 3 8.82678 3 9.0257V21.0257C3 21.2246 3.07902 21.4154 3.21967 21.556C3.36032 21.6967 3.55109 21.7757 3.75 21.7757H15.75C15.9489 21.7757 16.1397 21.6967 16.2803 21.556C16.421 21.4154 16.5 21.2246 16.5 21.0257V17.2757H20.25C20.4489 17.2757 20.6397 17.1967 20.7803 17.056C20.921 16.9154 21 16.7246 21 16.5257V4.5257C21 4.32678 20.921 4.13602 20.7803 3.99537C20.6397 3.85471 20.4489 3.7757 20.25 3.7757ZM15 20.2757H4.5V9.7757H15V20.2757ZM19.5 15.7757H16.5V9.0257C16.5 8.82678 16.421 8.63602 16.2803 8.49537C16.1397 8.35471 15.9489 8.2757 15.75 8.2757H9V5.2757H19.5V15.7757Z" fill="#333C40"/>
</g>
</svg>
