<svg width="24" height="25" viewBox="0 0 24 25" fill="none" xmlns="http://www.w3.org/2000/svg">
<g id="slash=false">
<path id="Vector" d="M23.1853 12.4719C23.1525 12.3979 22.3584 10.6363 20.5931 8.87101C18.2409 6.51882 15.27 5.2757 12 5.2757C8.72999 5.2757 5.75905 6.51882 3.40687 8.87101C1.64155 10.6363 0.843741 12.4007 0.814679 12.4719C0.772035 12.5679 0.75 12.6717 0.75 12.7766C0.75 12.8816 0.772035 12.9854 0.814679 13.0813C0.847491 13.1554 1.64155 14.916 3.40687 16.6813C5.75905 19.0326 8.72999 20.2757 12 20.2757C15.27 20.2757 18.2409 19.0326 20.5931 16.6813C22.3584 14.916 23.1525 13.1554 23.1853 13.0813C23.2279 12.9854 23.25 12.8816 23.25 12.7766C23.25 12.6717 23.2279 12.5679 23.1853 12.4719ZM12 18.7757C9.11437 18.7757 6.59343 17.7266 4.50655 15.6585C3.65028 14.807 2.92179 13.836 2.34374 12.7757C2.92164 11.7153 3.65014 10.7443 4.50655 9.89288C6.59343 7.82476 9.11437 6.7757 12 6.7757C14.8856 6.7757 17.4066 7.82476 19.4934 9.89288C20.3514 10.7441 21.0815 11.7151 21.6609 12.7757C20.985 14.0376 18.0403 18.7757 12 18.7757ZM12 8.2757C11.11 8.2757 10.2399 8.53962 9.49993 9.03408C8.7599 9.52855 8.18313 10.2314 7.84253 11.0536C7.50194 11.8759 7.41282 12.7807 7.58646 13.6536C7.76009 14.5265 8.18867 15.3283 8.81801 15.9577C9.44735 16.587 10.2492 17.0156 11.1221 17.1892C11.995 17.3629 12.8998 17.2737 13.7221 16.9332C14.5443 16.5926 15.2471 16.0158 15.7416 15.2758C16.2361 14.5357 16.5 13.6657 16.5 12.7757C16.4988 11.5826 16.0242 10.4387 15.1806 9.59509C14.337 8.75144 13.1931 8.27694 12 8.2757ZM12 15.7757C11.4066 15.7757 10.8266 15.5997 10.3333 15.2701C9.83993 14.9405 9.45542 14.4719 9.22835 13.9237C9.00129 13.3756 8.94188 12.7724 9.05764 12.1904C9.17339 11.6085 9.45911 11.0739 9.87867 10.6544C10.2982 10.2348 10.8328 9.9491 11.4147 9.83334C11.9967 9.71758 12.5999 9.77699 13.148 10.0041C13.6962 10.2311 14.1648 10.6156 14.4944 11.109C14.824 11.6023 15 12.1824 15 12.7757C15 13.5713 14.6839 14.3344 14.1213 14.897C13.5587 15.4596 12.7956 15.7757 12 15.7757Z" fill="#333C40"/>
</g>
</svg>
