<svg width="24" height="25" viewBox="0 0 24 25" fill="none" xmlns="http://www.w3.org/2000/svg">
<g id="slash=true">
<path id="Vector" d="M23.1853 12.4719C23.1525 12.3979 22.3584 10.6363 20.5931 8.87101C18.2409 6.51882 15.27 5.2757 12 5.2757C8.72999 5.2757 5.75905 6.51882 3.40687 8.87101C1.64155 10.6363 0.843741 12.4007 0.814679 12.4719C0.772035 12.5679 0.75 12.6717 0.75 12.7766C0.75 12.8816 0.772035 12.9854 0.814679 13.0813C0.847491 13.1554 1.64155 14.916 3.40687 16.6813C5.75905 19.0326 8.72999 20.2757 12 20.2757C15.27 20.2757 18.2409 19.0326 20.5931 16.6813C22.3584 14.916 23.1525 13.1554 23.1853 13.0813C23.2279 12.9854 23.25 12.8816 23.25 12.7766C23.25 12.6717 23.2279 12.5679 23.1853 12.4719ZM12 18.7757C9.11437 18.7757 6.59343 17.7266 4.50655 15.6585C3.65028 14.807 2.92179 13.836 2.34374 12.7757C2.92164 11.7153 3.65014 10.7443 4.50655 9.89288C6.59343 7.82476 9.11437 6.7757 12 6.7757C14.8856 6.7757 17.4066 7.82476 19.4934 9.89288C20.3514 10.7441 21.0815 11.7151 21.6609 12.7757C20.985 14.0376 18.0403 18.7757 12 18.7757ZM12 8.2757C11.11 8.2757 10.2399 8.53962 9.49993 9.03408C8.7599 9.52855 8.18313 10.2314 7.84253 11.0536C7.50194 11.8759 7.41282 12.7807 7.58646 13.6536C7.76009 14.5265 8.18867 15.3283 8.81801 15.9577C9.44735 16.587 10.2492 17.0156 11.1221 17.1892C11.995 17.3629 12.8998 17.2737 13.7221 16.9332C14.5443 16.5926 15.2471 16.0158 15.7416 15.2758C16.2361 14.5357 16.5 13.6657 16.5 12.7757C16.4988 11.5826 16.0242 10.4387 15.1806 9.59509C14.337 8.75144 13.1931 8.27694 12 8.2757ZM12 15.7757C11.4066 15.7757 10.8266 15.5997 10.3333 15.2701C9.83993 14.9405 9.45542 14.4719 9.22835 13.9237C9.00129 13.3756 8.94188 12.7724 9.05764 12.1904C9.17339 11.6085 9.45911 11.0739 9.87867 10.6544C10.2982 10.2348 10.8328 9.9491 11.4147 9.83334C11.9967 9.71758 12.5999 9.77699 13.148 10.0041C13.6962 10.2311 14.1648 10.6156 14.4944 11.109C14.824 11.6023 15 12.1824 15 12.7757C15 13.5713 14.6839 14.3344 14.1213 14.897C13.5587 15.4596 12.7956 15.7757 12 15.7757Z" fill="#333C40"/>
<path id="Vector_2" d="M5.05499 4.02132C4.98913 3.94708 4.90918 3.88665 4.81979 3.84353C4.7304 3.80041 4.63334 3.77546 4.53423 3.77013C4.43513 3.76479 4.33595 3.77919 4.24245 3.81247C4.14895 3.84575 4.06298 3.89725 3.98953 3.964C3.91608 4.03075 3.85661 4.11142 3.81457 4.20132C3.77252 4.29122 3.74874 4.38857 3.7446 4.48773C3.74045 4.5869 3.75603 4.68589 3.79043 4.77899C3.82483 4.87209 3.87737 4.95743 3.94499 5.03007L5.74874 7.01476C2.34374 9.10445 0.879366 12.3257 0.814679 12.4719C0.772035 12.5679 0.75 12.6717 0.75 12.7766C0.75 12.8816 0.772035 12.9854 0.814679 13.0813C0.847491 13.1554 1.64155 14.916 3.40687 16.6813C5.75905 19.0326 8.72999 20.2757 12 20.2757C13.6806 20.2853 15.3442 19.9393 16.8816 19.2604L18.9441 21.5301C19.0099 21.6043 19.0899 21.6648 19.1793 21.7079C19.2686 21.751 19.3657 21.7759 19.4648 21.7813C19.5639 21.7866 19.6631 21.7722 19.7566 21.7389C19.8501 21.7056 19.9361 21.6541 20.0095 21.5874C20.083 21.5206 20.1424 21.44 20.1845 21.3501C20.2265 21.2602 20.2503 21.1628 20.2544 21.0637C20.2586 20.9645 20.243 20.8655 20.2086 20.7724C20.1742 20.6793 20.1217 20.594 20.0541 20.5213L5.05499 4.02132ZM9.49218 11.1313L13.3987 15.4298C12.8105 15.7392 12.136 15.8446 11.4814 15.7292C10.8268 15.6139 10.229 15.2844 9.78189 14.7925C9.33481 14.3005 9.06377 13.6741 9.01134 13.0114C8.9589 12.3487 9.12803 11.6874 9.49218 11.1313ZM12 18.7757C9.11437 18.7757 6.59343 17.7266 4.50655 15.6585C3.64997 14.8072 2.92145 13.8362 2.34374 12.7757C2.78343 11.9516 4.18687 9.64539 6.7828 8.14632L8.4703 9.99789C7.81699 10.8346 7.48052 11.8754 7.52036 12.9362C7.56021 13.997 7.97379 15.0096 8.68802 15.7949C9.40225 16.5803 10.3711 17.0879 11.4234 17.2279C12.4757 17.368 13.5436 17.1316 14.4384 16.5604L15.8194 18.0791C14.6006 18.5467 13.3053 18.7829 12 18.7757ZM12.5625 9.82913C12.3671 9.79184 12.1944 9.67844 12.0826 9.51387C11.9708 9.34931 11.9289 9.14707 11.9662 8.95164C12.0035 8.7562 12.1169 8.58359 12.2815 8.47177C12.4461 8.35996 12.6483 8.31809 12.8437 8.35538C13.7996 8.5407 14.67 9.03006 15.325 9.75047C15.98 10.4709 16.3846 11.3837 16.4784 12.3529C16.4969 12.5509 16.436 12.7482 16.3091 12.9013C16.1822 13.0545 15.9996 13.1509 15.8016 13.1694C15.7781 13.1708 15.7547 13.1708 15.7312 13.1694C15.5438 13.1703 15.3628 13.1008 15.224 12.9748C15.0852 12.8489 14.9986 12.6755 14.9812 12.4888C14.9181 11.8442 14.6486 11.2371 14.2128 10.758C13.7771 10.2788 13.1982 9.95301 12.5625 9.82913ZM23.1825 13.0813C23.1431 13.1694 22.1934 15.2723 20.055 17.1876C19.9819 17.2551 19.8961 17.3074 19.8027 17.3415C19.7092 17.3755 19.6099 17.3906 19.5105 17.3859C19.4111 17.3812 19.3136 17.3568 19.2238 17.3141C19.1339 17.2713 19.0535 17.2111 18.9871 17.137C18.9208 17.0629 18.8698 16.9763 18.8373 16.8823C18.8047 16.7882 18.7912 16.6887 18.7975 16.5894C18.8037 16.4901 18.8297 16.393 18.8739 16.3039C18.918 16.2147 18.9795 16.1352 19.0547 16.0701C20.1038 15.1275 20.9851 14.0135 21.6609 12.7757C21.0819 11.7142 20.3518 10.7425 19.4934 9.89101C17.4066 7.82476 14.8856 6.7757 12 6.7757C11.392 6.77496 10.7849 6.82418 10.185 6.92289C10.0874 6.94014 9.98741 6.93789 9.89073 6.91627C9.79404 6.89465 9.70259 6.85409 9.62167 6.79693C9.54074 6.73976 9.47195 6.66713 9.41925 6.58323C9.36656 6.49933 9.33101 6.40582 9.31466 6.3081C9.29832 6.21038 9.30149 6.11039 9.32401 6.01391C9.34652 5.91742 9.38793 5.82636 9.44584 5.74597C9.50375 5.66558 9.57702 5.59746 9.6614 5.54554C9.74579 5.49363 9.83963 5.45895 9.93749 5.44351C10.6192 5.33095 11.309 5.27482 12 5.2757C15.27 5.2757 18.2409 6.51882 20.5931 8.87101C22.3584 10.6363 23.1525 12.3979 23.1853 12.4719C23.2279 12.5679 23.25 12.6717 23.25 12.7766C23.25 12.8816 23.2279 12.9854 23.1853 13.0813H23.1825Z" fill="#333C40"/>
</g>
</svg>
