<svg width="20" height="24" viewBox="0 0 20 24" fill="none" xmlns="http://www.w3.org/2000/svg">
<g id="logo">
<rect width="19.4232" height="24" fill="white"/>
<path id="Vector" d="M7.37739 1.75425C7.33402 1.75408 7.29105 1.76247 7.25093 1.77895C7.21081 1.79542 7.17434 1.81966 7.14362 1.85027C7.11289 1.88087 7.08851 1.91725 7.07187 1.9573C7.05523 1.99735 7.04667 2.04029 7.04667 2.08366C7.04667 2.26536 7.19438 2.41176 7.37739 2.41176H12.231C12.414 2.41176 12.5617 2.26536 12.5617 2.08366C12.5617 2.04029 12.5531 1.99735 12.5365 1.9573C12.5199 1.91725 12.4955 1.88087 12.4648 1.85027C12.434 1.81966 12.3976 1.79542 12.3574 1.77895C12.3173 1.76247 12.2744 1.75408 12.231 1.75425H7.37739ZM12.231 0C13.1905 0 13.9996 0.640523 14.2493 1.51634L17.0924 1.51765C17.9042 1.52288 18.5591 1.78562 18.9643 2.35163C19.312 2.83791 19.4506 3.46275 19.4153 4.16471L19.4114 21.1752C19.4663 21.8967 19.3303 22.5346 18.9826 23.0641C18.5748 23.6824 17.9094 23.9922 17.0846 24H2.797C1.80353 23.9608 1.06759 23.7268 0.607455 23.2039C0.180004 22.719 -0.0069237 22.0536 0.000919435 21.2431V4.1817C-0.016074 3.39739 0.202227 2.73595 0.678044 2.24706C1.16955 1.7451 1.89634 1.52288 2.83099 1.51634H5.3604C5.60876 0.640523 6.41791 0 7.37739 0H12.231ZM12.231 4.16601H7.37739C6.66367 4.16601 6.03491 3.81307 5.65582 3.2719H2.83621C2.33556 3.27451 2.04929 3.3634 1.94471 3.47059C1.82576 3.59216 1.75647 3.8 1.76432 4.16471V21.2497C1.7604 21.6745 1.83229 21.932 1.93425 22.0471C2.00484 22.1268 2.30811 22.2235 2.82968 22.2444H17.078C17.3395 22.2418 17.4441 22.1922 17.5042 22.102C17.6231 21.9216 17.678 21.6654 17.648 21.2418L17.6493 4.12288C17.6676 3.73987 17.614 3.49281 17.5238 3.36732C17.4898 3.32157 17.3722 3.2732 17.0846 3.2719H13.9512C13.5722 3.81307 12.9434 4.16601 12.2297 4.16601H12.231ZM9.40615 13.2157C9.89373 13.2157 10.2885 13.6078 10.2885 14.0928C10.2885 14.5765 9.89373 14.9699 9.40615 14.9699H4.11072C3.99519 14.9705 3.8807 14.9482 3.77376 14.9045C3.66683 14.8607 3.56956 14.7964 3.4875 14.715C3.40545 14.6337 3.34021 14.537 3.29553 14.4305C3.25084 14.3239 3.22758 14.2096 3.22706 14.0941C3.22706 13.6092 3.62314 13.2157 4.11072 13.2157H9.40615ZM14.7029 9.70719C15.1892 9.70719 15.5852 10.0993 15.5852 10.5843C15.5852 11.068 15.1892 11.4614 14.7029 11.4614H4.11072C3.99519 11.462 3.8807 11.4397 3.77376 11.396C3.66683 11.3522 3.56956 11.2879 3.4875 11.2065C3.40545 11.1252 3.34021 11.0285 3.29553 10.922C3.25084 10.8154 3.22758 10.7012 3.22706 10.5856C3.22706 10.1007 3.62314 9.70719 4.11072 9.70719H14.7029ZM14.7029 6.19869C15.1892 6.19869 15.5852 6.59085 15.5852 7.07582C15.5849 7.19135 15.5618 7.30568 15.5173 7.41228C15.4727 7.51888 15.4077 7.61567 15.3257 7.69712C15.2438 7.77857 15.1466 7.84308 15.0397 7.88698C14.9329 7.93087 14.8184 7.95329 14.7029 7.95294H4.11072C3.99519 7.95346 3.8807 7.93121 3.77376 7.88748C3.66683 7.84374 3.56956 7.77937 3.4875 7.69805C3.40545 7.61672 3.34021 7.52003 3.29553 7.41349C3.25084 7.30695 3.22758 7.19265 3.22706 7.07712C3.22706 6.59216 3.62314 6.19869 4.11072 6.19869H14.7029Z" fill="#498BA5"/>
</g>
</svg>
