<svg width="122" height="21" viewBox="0 0 122 21" fill="none" xmlns="http://www.w3.org/2000/svg">
<path d="M3.08203 0.90625L8.08594 13.4453L13.1602 0.90625H16.1484L8.02734 20.3594L0.09375 0.90625H3.08203Z" fill="#498BA5"/>
<path d="M24.9141 7.58594H27.5625V19H24.9141V17.8047C23.8281 18.8203 22.6602 19.3281 21.4102 19.3281C19.832 19.3281 18.5273 18.7578 17.4961 17.6172C16.4727 16.4531 15.9609 15 15.9609 13.2578C15.9609 11.5469 16.4727 10.1211 17.4961 8.98047C18.5195 7.83984 19.8008 7.26953 21.3398 7.26953C22.668 7.26953 23.8594 7.81641 24.9141 8.91016V7.58594ZM18.6562 13.2578C18.6562 14.3516 18.9492 15.2422 19.5352 15.9297C20.1367 16.625 20.8945 16.9727 21.8086 16.9727C22.7852 16.9727 23.5742 16.6367 24.1758 15.9648C24.7773 15.2695 25.0781 14.3867 25.0781 13.3164C25.0781 12.2461 24.7773 11.3633 24.1758 10.668C23.5742 9.98828 22.793 9.64844 21.832 9.64844C20.9258 9.64844 20.168 9.99219 19.5586 10.6797C18.957 11.375 18.6562 12.2344 18.6562 13.2578Z" fill="#498BA5"/>
<path d="M30.8906 7.58594H33.5273V8.60547C34.0117 8.09766 34.4414 7.75 34.8164 7.5625C35.1992 7.36719 35.6523 7.26953 36.1758 7.26953C36.8711 7.26953 37.5977 7.49609 38.3555 7.94922L37.1484 10.3633C36.6484 10.0039 36.1602 9.82422 35.6836 9.82422C34.2461 9.82422 33.5273 10.9102 33.5273 13.082V19H30.8906V7.58594Z" fill="#498BA5"/>
<path d="M48.1172 7.58594H50.7656V19H48.1172V17.8047C47.0312 18.8203 45.8633 19.3281 44.6133 19.3281C43.0352 19.3281 41.7305 18.7578 40.6992 17.6172C39.6758 16.4531 39.1641 15 39.1641 13.2578C39.1641 11.5469 39.6758 10.1211 40.6992 8.98047C41.7227 7.83984 43.0039 7.26953 44.543 7.26953C45.8711 7.26953 47.0625 7.81641 48.1172 8.91016V7.58594ZM41.8594 13.2578C41.8594 14.3516 42.1523 15.2422 42.7383 15.9297C43.3398 16.625 44.0977 16.9727 45.0117 16.9727C45.9883 16.9727 46.7773 16.6367 47.3789 15.9648C47.9805 15.2695 48.2812 14.3867 48.2812 13.3164C48.2812 12.2461 47.9805 11.3633 47.3789 10.668C46.7773 9.98828 45.9961 9.64844 45.0352 9.64844C44.1289 9.64844 43.3711 9.99219 42.7617 10.6797C42.1602 11.375 41.8594 12.2344 41.8594 13.2578Z" fill="#498BA5"/>
<path d="M56.7305 7.58594V14.1367C56.7305 16.0273 57.4766 16.9727 58.9688 16.9727C60.4609 16.9727 61.207 16.0273 61.207 14.1367V7.58594H63.8438V14.1953C63.8438 15.1094 63.7305 15.8984 63.5039 16.5625C63.2852 17.1562 62.9062 17.6914 62.3672 18.168C61.4766 18.9414 60.3438 19.3281 58.9688 19.3281C57.6016 19.3281 56.4727 18.9414 55.582 18.168C55.0352 17.6914 54.6484 17.1562 54.4219 16.5625C54.2031 16.0312 54.0938 15.2422 54.0938 14.1953V7.58594H56.7305Z" fill="#498BA5"/>
<path d="M73.8047 9.53125L71.625 10.6914C71.2812 9.98828 70.8555 9.63672 70.3477 9.63672C70.1055 9.63672 69.8984 9.71875 69.7266 9.88281C69.5547 10.0391 69.4688 10.2422 69.4688 10.4922C69.4688 10.9297 69.9766 11.3633 70.9922 11.793C72.3906 12.3945 73.332 12.9492 73.8164 13.457C74.3008 13.9648 74.543 14.6484 74.543 15.5078C74.543 16.6094 74.1367 17.5312 73.3242 18.2734C72.5352 18.9766 71.582 19.3281 70.4648 19.3281C68.5508 19.3281 67.1953 18.3945 66.3984 16.5273L68.6484 15.4844C68.9609 16.0312 69.1992 16.3789 69.3633 16.5273C69.6836 16.8242 70.0664 16.9727 70.5117 16.9727C71.4023 16.9727 71.8477 16.5664 71.8477 15.7539C71.8477 15.2852 71.5039 14.8477 70.8164 14.4414C70.5508 14.3086 70.2852 14.1797 70.0195 14.0547C69.7539 13.9297 69.4844 13.8008 69.2109 13.668C68.4453 13.293 67.9062 12.918 67.5938 12.543C67.1953 12.0664 66.9961 11.4531 66.9961 10.7031C66.9961 9.71094 67.3359 8.89062 68.0156 8.24219C68.7109 7.59375 69.5547 7.26953 70.5469 7.26953C72.0078 7.26953 73.0938 8.02344 73.8047 9.53125Z" fill="#498BA5"/>
<path d="M80.1562 0.90625V16.4336H85.4766V19H77.4258V0.90625H80.1562Z" fill="#498BA5"/>
<path d="M90.1992 7.58594V19H87.5625V7.58594H90.1992ZM87.1641 2.83984C87.1641 2.37891 87.332 1.98047 87.668 1.64453C88.0039 1.30859 88.4062 1.14062 88.875 1.14062C89.3516 1.14062 89.7578 1.30859 90.0938 1.64453C90.4297 1.97266 90.5977 2.375 90.5977 2.85156C90.5977 3.32812 90.4297 3.73438 90.0938 4.07031C89.7656 4.40625 89.3633 4.57422 88.8867 4.57422C88.4102 4.57422 88.0039 4.40625 87.668 4.07031C87.332 3.73438 87.1641 3.32422 87.1641 2.83984Z" fill="#498BA5"/>
<path d="M100.172 9.53125L97.9922 10.6914C97.6484 9.98828 97.2227 9.63672 96.7148 9.63672C96.4727 9.63672 96.2656 9.71875 96.0938 9.88281C95.9219 10.0391 95.8359 10.2422 95.8359 10.4922C95.8359 10.9297 96.3438 11.3633 97.3594 11.793C98.7578 12.3945 99.6992 12.9492 100.184 13.457C100.668 13.9648 100.91 14.6484 100.91 15.5078C100.91 16.6094 100.504 17.5312 99.6914 18.2734C98.9023 18.9766 97.9492 19.3281 96.832 19.3281C94.918 19.3281 93.5625 18.3945 92.7656 16.5273L95.0156 15.4844C95.3281 16.0312 95.5664 16.3789 95.7305 16.5273C96.0508 16.8242 96.4336 16.9727 96.8789 16.9727C97.7695 16.9727 98.2148 16.5664 98.2148 15.7539C98.2148 15.2852 97.8711 14.8477 97.1836 14.4414C96.918 14.3086 96.6523 14.1797 96.3867 14.0547C96.1211 13.9297 95.8516 13.8008 95.5781 13.668C94.8125 13.293 94.2734 12.918 93.9609 12.543C93.5625 12.0664 93.3633 11.4531 93.3633 10.7031C93.3633 9.71094 93.7031 8.89062 94.3828 8.24219C95.0781 7.59375 95.9219 7.26953 96.9141 7.26953C98.375 7.26953 99.4609 8.02344 100.172 9.53125Z" fill="#498BA5"/>
<path d="M106.008 10.0469V19H103.371V10.0469H102.246V7.58594H103.371V3.40234H106.008V7.58594H108.059V10.0469H106.008Z" fill="#498BA5"/>
<path d="M118.477 7.58594H121.125V19H118.477V17.8047C117.391 18.8203 116.223 19.3281 114.973 19.3281C113.395 19.3281 112.09 18.7578 111.059 17.6172C110.035 16.4531 109.523 15 109.523 13.2578C109.523 11.5469 110.035 10.1211 111.059 8.98047C112.082 7.83984 113.363 7.26953 114.902 7.26953C116.23 7.26953 117.422 7.81641 118.477 8.91016V7.58594ZM112.219 13.2578C112.219 14.3516 112.512 15.2422 113.098 15.9297C113.699 16.625 114.457 16.9727 115.371 16.9727C116.348 16.9727 117.137 16.6367 117.738 15.9648C118.34 15.2695 118.641 14.3867 118.641 13.3164C118.641 12.2461 118.34 11.3633 117.738 10.668C117.137 9.98828 116.355 9.64844 115.395 9.64844C114.488 9.64844 113.73 9.99219 113.121 10.6797C112.52 11.375 112.219 12.2344 112.219 13.2578Z" fill="#498BA5"/>
</svg>
